<svg width="800" height="800" viewBox="0 0 800 800" fill="none" xmlns="http://www.w3.org/2000/svg">
<path d="M400 774.625C597.994 774.625 758.5 614.119 758.5 416.125C758.5 218.131 597.994 57.625 400 57.625C202.006 57.625 41.5 218.131 41.5 416.125C41.5 614.119 202.006 774.625 400 774.625Z" fill="#D68F30"/>
<path d="M65.875 509.25V545.875C69.625 555.562 73.8125 565.125 78.375 574.375V509.25H65.875Z" fill="#BC6F00"/>
<path d="M106.75 578.188V622.188C111.75 629.25 116.937 636.187 122.375 642.875V578.188H106.75Z" fill="#BC6F00"/>
<path d="M160.875 635.688V683.125C166.938 688.563 173.188 693.75 179.625 698.75V635.688H160.875Z" fill="#BC6F00"/>
<path d="M227.5 679.375V730.375C233.625 733.75 239.875 736.938 246.25 740V679.375H227.5Z" fill="#BC6F00"/>
<path d="M303.062 707.188V761.187C309.25 762.937 315.5 764.5 321.812 765.938V707.188H303.062Z" fill="#BC6F00"/>
<path d="M391.5 716.812V774.375C394.312 774.437 397.125 774.562 400 774.562C403.438 774.562 406.875 774.375 410.25 774.312V716.812H391.5Z" fill="#BC6F00"/>
<path d="M479.938 706.75V765.5C486.25 764.063 492.5 762.437 498.688 760.687V706.75H479.938Z" fill="#BC6F00"/>
<path d="M555.312 678.562V739.25C561.687 736.187 567.937 732.875 574.062 729.437V678.562H555.312Z" fill="#BC6F00"/>
<path d="M621.75 634.5V697.625C628.183 692.597 634.437 687.344 640.5 681.875V634.5H621.75Z" fill="#BC6F00"/>
<path d="M694.312 576.812H678.688V641.5C684.125 634.75 689.375 627.812 694.312 620.687V576.812Z" fill="#BC6F00"/>
<path d="M734.938 507.625H722.438V572.875C727 563.438 731.187 553.75 734.938 543.937V507.625Z" fill="#BC6F00"/>
<path d="M400 742.375C597.994 742.375 758.5 581.869 758.5 383.875C758.5 185.881 597.994 25.375 400 25.375C202.006 25.375 41.5 185.881 41.5 383.875C41.5 581.869 202.006 742.375 400 742.375Z" fill="#FFF176"/>
<path d="M400 710.438C580.355 710.438 726.562 564.23 726.562 383.875C726.562 203.52 580.355 57.3125 400 57.3125C219.645 57.3125 73.4375 203.52 73.4375 383.875C73.4375 564.23 219.645 710.438 400 710.438Z" fill="#F2BC1A"/>
<path d="M72.8125 396.375C70.5 353.375 77.9375 309.75 92.9375 268.875C108.562 228.125 132.5 190.438 162.687 158.438C223.312 94.3125 311.312 57.125 400 56.6875C488.687 57.1875 576.75 94.3125 637.25 158.5C667.5 190.438 691.375 228.188 707 268.875C722.062 309.813 729.5 353.375 727.125 396.375H725.875C725.752 353.479 717.26 311.019 700.875 271.375C684.461 231.776 660.495 195.752 630.312 165.313C600.112 134.903 564.221 110.736 524.687 94.1875C485.167 77.6865 442.765 69.19 399.937 69.19C357.11 69.19 314.708 77.6865 275.187 94.1875C235.653 110.736 199.763 134.903 169.562 165.313C139.36 195.735 115.391 231.764 99 271.375C82.6149 311.019 74.1229 353.479 74 396.375H72.8125Z" fill="#E08F00"/>
<path d="M400 25.4375C202 25.4375 41.5 185.938 41.5 383.938C41.5 581.938 202 742.438 400 742.438C598 742.438 758.5 581.938 758.5 383.938C758.5 185.938 598 25.4375 400 25.4375ZM400 710.5C219.625 710.5 73.4375 564.313 73.4375 383.938C73.4375 203.5 219.625 57.3125 400 57.3125C580.375 57.3125 726.563 203.5 726.563 383.875C726.563 564.25 580.375 710.5 400 710.5Z" fill="#FFF176"/>
<path d="M237.437 133.438L245.375 158L271.25 148.125V158L250.312 173.187L258.312 187.812V197.75L237.437 182.562L216.5 197.75V187.812L224.5 173.187L203.625 158V148.125L229.437 158L237.437 133.438Z" fill="#D38200"/>
<path d="M137.562 274.438L145.563 299L171.375 289.125V299L150.5 314.188L158.5 328.875V338.75L137.562 323.563L116.687 338.75V328.875L124.688 314.188L103.75 299V289.125L129.625 299L137.562 274.438Z" fill="#D38200"/>
<path d="M134.625 448.25L142.625 472.813L168.438 462.937V472.813L147.563 488L155.563 502.687V512.563L134.625 497.375L113.75 512.563V502.687L121.75 488L100.812 472.813V462.937L126.688 472.813L134.625 448.25Z" fill="#D38200"/>
<path d="M241.25 586.25L249.25 610.813L275.062 600.937V610.813L254.187 626L262.188 640.625V650.562L241.25 635.375L220.375 650.562V640.625L228.375 626L207.438 610.813V600.937L233.313 610.813L241.25 586.25Z" fill="#D38200"/>
<path d="M562.563 133.438L554.625 158L528.75 148.125V158L549.687 173.187L541.687 187.812V197.75L562.563 182.562L583.5 197.75V187.812L575.5 173.187L596.375 158V148.125L570.563 158L562.563 133.438Z" fill="#D38200"/>
<path d="M662.437 274.438L654.437 299L628.625 289.125V299L649.5 314.188L641.5 328.875V338.75L662.437 323.563L683.312 338.75V328.875L675.313 314.188L696.25 299V289.125L670.375 299L662.437 274.438Z" fill="#D38200"/>
<path d="M665.375 448.25L657.375 472.813L631.562 462.937V472.813L652.437 488L644.437 502.687V512.563L665.375 497.375L686.25 512.563V502.687L678.25 488L699.187 472.813V462.937L673.313 472.813L665.375 448.25Z" fill="#D38200"/>
<path d="M558.75 586.25L550.75 610.813L524.938 600.937V610.813L545.813 626L537.813 640.625V650.562L558.75 635.375L579.625 650.562V640.625L571.625 626L592.562 610.813V600.937L566.688 610.813L558.75 586.25Z" fill="#D38200"/>
<path d="M558.75 576.312L566.688 600.875H592.562L571.625 616.063L579.625 640.625L558.75 625.438L537.813 640.625L545.813 616.063L524.938 600.875H550.75L558.75 576.312Z" fill="#FFF176"/>
<path d="M665.375 438.375L673.313 462.938H699.187L678.25 478.125L686.25 502.688L665.375 487.5L644.437 502.688L652.437 478.125L631.562 462.938H657.375L665.375 438.375Z" fill="#FFF176"/>
<path d="M662.437 264.562L670.375 289.125H696.25L675.313 304.312L683.312 328.875L662.437 313.687L641.5 328.875L649.5 304.312L628.625 289.125H654.437L662.437 264.562Z" fill="#FFF176"/>
<path d="M562.563 123.5L570.563 148.063H596.375L575.5 163.25L583.5 187.812L562.563 172.625L541.687 187.812L549.687 163.25L528.75 148.063H554.625L562.563 123.5Z" fill="#FFF176"/>
<path d="M400.313 640.625L408.313 665.188L434.125 655.312V665.188L413.25 680.375L421.25 695.062V704.938L400.313 689.75L379.437 704.938V695.062L387.438 680.375L366.5 665.188V655.312L392.375 665.188L400.313 640.625Z" fill="#D38200"/>
<path d="M400.313 627.5L408.313 652.063H434.125L413.25 667.25L421.25 691.813L400.313 676.625L379.437 691.813L387.438 667.25L366.5 652.063H392.375L400.313 627.5Z" fill="#FFF176"/>
<path d="M400.313 80.5625L408.313 105.125L434.125 95.25V105.125L413.25 120.312L421.25 135V144.875L400.313 129.687L379.437 144.875V135L387.438 120.312L366.5 105.125V95.25L392.375 105.125L400.313 80.5625Z" fill="#D38200"/>
<path d="M400.313 70.6875L408.313 95.25H434.125L413.25 110.437L421.25 135L400.313 119.812L379.437 135L387.438 110.437L366.5 95.25H392.375L400.313 70.6875Z" fill="#FFF176"/>
<path d="M241.25 576.312L233.313 600.875H207.438L228.375 616.063L220.375 640.625L241.25 625.438L262.188 640.625L254.187 616.063L275.062 600.875H249.25L241.25 576.312Z" fill="#FFF176"/>
<path d="M134.625 438.375L126.688 462.938H100.812L121.75 478.125L113.75 502.688L134.625 487.5L155.563 502.688L147.563 478.125L168.438 462.938H142.625L134.625 438.375Z" fill="#FFF176"/>
<path d="M137.562 264.562L129.625 289.125H103.75L124.688 304.312L116.687 328.875L137.562 313.687L158.5 328.875L150.5 304.312L171.375 289.125H145.563L137.562 264.562Z" fill="#FFF176"/>
<path d="M237.437 123.5L229.437 148.063H203.625L224.5 163.25L216.5 187.812L237.437 172.625L258.312 187.812L250.312 163.25L271.25 148.063H245.375L237.437 123.5Z" fill="#FFF176"/>
<path d="M549 277.063L400 192.5L251 277.063H549Z" fill="#F2BC1A"/>
<path d="M411 243.5C438 243.5 460.833 246 479.5 251C498.167 256 513 265.667 524 280C535.333 294 541 314.167 541 340.5C541 352.167 539.167 364.167 535.5 376.5C532.167 388.5 527.833 399 522.5 408C517.5 417 513 422.833 509 425.5C504.333 428.833 494 431.5 478 433.5C462 435.167 443.167 436 421.5 436C413.833 436 402 435.667 386 435V530H296V245C331 244 369.333 243.5 411 243.5ZM448.5 372C451.833 367.667 453.5 359 453.5 346C453.5 329 449.833 317 442.5 310C435.5 303 423.167 299.5 405.5 299.5C399.5 299.5 393 300 386 301V377C389.333 377.333 395.833 377.5 405.5 377.5C431.167 377.5 445.5 375.667 448.5 372Z" fill="#FFF176"/>
</svg>
